<svg width="495" height="644" viewBox="0 0 495 644" fill="none" xmlns="http://www.w3.org/2000/svg">
<g opacity="0.8">
<rect x="493.859" y="79.0816" width="26.7346" height="1.04944" transform="rotate(90 493.859 79.0816)" stroke="#121212"/>
<rect x="493.846" y="79.6088" width="25.6803" height="1.53711" transform="rotate(90 493.846 79.6088)" fill="#585858"/>
<g opacity="0.3">
<rect opacity="0.9" x="493.846" y="79.6088" width="0.515205" height="0.515045" transform="rotate(90 493.846 79.6088)" fill="#717171"/>
<rect opacity="0.9" x="493.846" y="80.1224" width="0.515182" height="0.515045" transform="rotate(90 493.846 80.1224)" fill="#787878"/>
<rect opacity="0.9" x="493.334" y="80.1224" width="0.515182" height="0.515015" transform="rotate(90 493.334 80.1224)" fill="#4C4C4C"/>
<rect opacity="0.9" x="493.334" y="79.6088" width="0.515205" height="0.515015" transform="rotate(90 493.334 79.6088)" fill="#505050"/>
<rect opacity="0.9" x="492.823" y="80.1224" width="0.515182" height="0.515015" transform="rotate(90 492.823 80.1224)" fill="#4C4C4C"/>
<rect opacity="0.9" x="492.823" y="79.6088" width="0.515205" height="0.515015" transform="rotate(90 492.823 79.6088)" fill="#505050"/>
</g>
<g opacity="0.3">
<rect opacity="0.9" x="493.846" y="104.262" width="0.51519" height="0.515045" transform="rotate(90 493.846 104.262)" fill="#717171"/>
<rect opacity="0.9" x="493.846" y="104.775" width="0.51519" height="0.515045" transform="rotate(90 493.846 104.775)" fill="#787878"/>
<rect opacity="0.9" x="493.333" y="104.775" width="0.51519" height="0.515015" transform="rotate(90 493.333 104.775)" fill="#4C4C4C"/>
<rect opacity="0.9" x="493.333" y="105.289" width="0.515205" height="0.515015" transform="rotate(90 493.333 105.289)" fill="#CFCFCF"/>
<rect opacity="0.9" x="493.334" y="104.262" width="0.515182" height="0.514984" transform="rotate(90 493.334 104.262)" fill="#505050"/>
<rect opacity="0.9" x="492.822" y="104.775" width="0.51519" height="0.515015" transform="rotate(90 492.822 104.775)" fill="#4C4C4C"/>
<rect opacity="0.9" x="492.822" y="104.262" width="0.515182" height="0.515015" transform="rotate(90 492.822 104.262)" fill="#505050"/>
<rect opacity="0.7" x="493.332" y="84.7449" width="19.517" height="1.0256" transform="rotate(90 493.332 84.7449)" fill="url(#paint0_linear)"/>
</g>
</g>
<g opacity="0.8">
<rect x="493.859" y="47.2381" width="26.7347" height="1.04944" transform="rotate(90 493.859 47.2381)" stroke="#121212"/>
<rect x="493.846" y="47.7653" width="25.6803" height="1.53711" transform="rotate(90 493.846 47.7653)" fill="#585858"/>
<g opacity="0.5">
<rect opacity="0.9" x="493.846" y="47.7652" width="0.515205" height="0.515045" transform="rotate(90 493.846 47.7652)" fill="#717171"/>
<rect opacity="0.9" x="493.846" y="48.2789" width="0.515202" height="0.515045" transform="rotate(90 493.846 48.2789)" fill="#787878"/>
<rect opacity="0.9" x="493.334" y="48.2789" width="0.515202" height="0.515015" transform="rotate(90 493.334 48.2789)" fill="#4C4C4C"/>
<rect opacity="0.9" x="493.334" y="47.7653" width="0.515202" height="0.515015" transform="rotate(90 493.334 47.7653)" fill="#505050"/>
<rect opacity="0.9" x="492.823" y="48.2789" width="0.515202" height="0.515015" transform="rotate(90 492.823 48.2789)" fill="#4C4C4C"/>
<rect opacity="0.9" x="492.823" y="47.7653" width="0.515209" height="0.515015" transform="rotate(90 492.823 47.7653)" fill="#505050"/>
<rect opacity="0.9" x="492.823" y="47.2517" width="0.515202" height="0.515015" transform="rotate(90 492.823 47.2517)" fill="#D1D1D1"/>
<rect opacity="0.7" x="493.334" y="47.2517" width="0.515202" height="0.514984" transform="rotate(90 493.334 47.2517)" fill="#D1D1D1"/>
<rect opacity="0.4" x="493.845" y="47.2533" width="0.515202" height="0.515015" transform="rotate(90 493.845 47.2533)" fill="#D1D1D1"/>
</g>
<g opacity="0.4">
<rect opacity="0.9" x="493.846" y="72.4183" width="0.515213" height="0.515045" transform="rotate(90 493.846 72.4183)" fill="#717171"/>
<rect opacity="0.9" x="493.846" y="72.9319" width="0.515205" height="0.515045" transform="rotate(90 493.846 72.9319)" fill="#787878"/>
<rect opacity="0.9" x="493.334" y="72.9319" width="0.515205" height="0.515015" transform="rotate(90 493.334 72.9319)" fill="#4C4C4C"/>
<rect opacity="0.9" x="492.822" y="73.4455" width="0.51519" height="0.515015" transform="rotate(90 492.822 73.4455)" fill="#D1D1D1"/>
<rect opacity="0.7" x="493.334" y="73.4455" width="0.51519" height="0.515015" transform="rotate(90 493.334 73.4455)" fill="#D1D1D1"/>
<rect opacity="0.4" x="493.846" y="73.4455" width="0.51519" height="0.515045" transform="rotate(90 493.846 73.4455)" fill="#D1D1D1"/>
<rect opacity="0.9" x="493.334" y="72.4183" width="0.515213" height="0.514984" transform="rotate(90 493.334 72.4183)" fill="#505050"/>
<rect opacity="0.9" x="492.823" y="72.9319" width="0.515205" height="0.515015" transform="rotate(90 492.823 72.9319)" fill="#4C4C4C"/>
<rect opacity="0.9" x="492.822" y="72.4183" width="0.515213" height="0.515015" transform="rotate(90 492.822 72.4183)" fill="#505050"/>
<rect opacity="0.7" x="493.332" y="52.9013" width="19.517" height="1.0256" transform="rotate(90 493.332 52.9013)" fill="url(#paint1_linear)"/>
</g>
</g>
<mask id="path-38-outside-1" maskUnits="userSpaceOnUse" x="0.992188" y="1.05441" width="492" height="642" fill="black">
<rect fill="white" x="0.992188" y="1.05441" width="492" height="642"/>
<path fill-rule="evenodd" clip-rule="evenodd" d="M37.9922 2.05441C18.1099 2.05441 1.99219 18.1722 1.99219 38.0544V606.006C1.99219 625.888 18.11 642.006 37.9922 642.006H455.798C475.68 642.006 491.798 625.888 491.798 606.006V38.0544C491.798 18.1722 475.68 2.05441 455.798 2.05441H37.9922ZM38 24.5744C30.8203 24.5744 25 30.3947 25 37.5744V606.736C25 613.915 30.8203 619.736 38 619.736H456.051C463.231 619.736 469.051 613.915 469.051 606.736V37.5744C469.051 30.3947 463.231 24.5744 456.051 24.5744H38Z"/>
</mask>
<path fill-rule="evenodd" clip-rule="evenodd" d="M37.9922 2.05441C18.1099 2.05441 1.99219 18.1722 1.99219 38.0544V606.006C1.99219 625.888 18.11 642.006 37.9922 642.006H455.798C475.68 642.006 491.798 625.888 491.798 606.006V38.0544C491.798 18.1722 475.68 2.05441 455.798 2.05441H37.9922ZM38 24.5744C30.8203 24.5744 25 30.3947 25 37.5744V606.736C25 613.915 30.8203 619.736 38 619.736H456.051C463.231 619.736 469.051 613.915 469.051 606.736V37.5744C469.051 30.3947 463.231 24.5744 456.051 24.5744H38Z" fill="url(#paint2_radial)"/>
<path d="M2.99219 38.0544C2.99219 18.7245 18.6622 3.05441 37.9922 3.05441V1.05441C17.5577 1.05441 0.992188 17.6199 0.992188 38.0544H2.99219ZM2.99219 606.006V38.0544H0.992188V606.006H2.99219ZM37.9922 641.006C18.6622 641.006 2.99219 625.336 2.99219 606.006H0.992188C0.992188 626.441 17.5577 643.006 37.9922 643.006V641.006ZM455.798 641.006H37.9922V643.006H455.798V641.006ZM490.798 606.006C490.798 625.336 475.128 641.006 455.798 641.006V643.006C476.233 643.006 492.798 626.441 492.798 606.006H490.798ZM490.798 38.0544V606.006H492.798V38.0544H490.798ZM455.798 3.05441C475.128 3.05441 490.798 18.7244 490.798 38.0544H492.798C492.798 17.6199 476.232 1.05441 455.798 1.05441V3.05441ZM37.9922 3.05441H455.798V1.05441H37.9922V3.05441ZM26 37.5744C26 30.947 31.3726 25.5744 38 25.5744V23.5744C30.268 23.5744 24 29.8424 24 37.5744H26ZM26 606.736V37.5744H24V606.736H26ZM38 618.736C31.3726 618.736 26 613.363 26 606.736H24C24 614.468 30.268 620.736 38 620.736V618.736ZM456.051 618.736H38V620.736H456.051V618.736ZM468.051 606.736C468.051 613.363 462.678 618.736 456.051 618.736V620.736C463.783 620.736 470.051 614.467 470.051 606.736H468.051ZM468.051 37.5744V606.736H470.051V37.5744H468.051ZM456.051 25.5744C462.678 25.5744 468.051 30.947 468.051 37.5744H470.051C470.051 29.8424 463.783 23.5744 456.051 23.5744V25.5744ZM38 25.5744H456.051V23.5744H38V25.5744Z" fill="#2B2B2B" mask="url(#path-38-outside-1)"/>
<path fill-rule="evenodd" clip-rule="evenodd" d="M39.5293 3.59522C19.647 3.59522 3.5293 19.7129 3.5293 39.5952V604.465C3.5293 624.348 19.6471 640.465 39.5293 640.465H454.261C474.143 640.465 490.261 624.348 490.261 604.466V39.5952C490.261 19.713 474.143 3.59522 454.261 3.59522H39.5293ZM38.0001 24.5744C30.8204 24.5744 25.0001 30.3947 25.0001 37.5744V606.735C25.0001 613.915 30.8204 619.735 38.0001 619.735H456.051C463.231 619.735 469.051 613.915 469.051 606.735V37.5744C469.051 30.3947 463.231 24.5744 456.051 24.5744H38.0001Z" fill="url(#paint3_linear)"/>
<path fill-rule="evenodd" clip-rule="evenodd" d="M39.5293 3.59522C19.647 3.59522 3.5293 19.7129 3.5293 39.5952V604.465C3.5293 624.348 19.6471 640.465 39.5293 640.465H454.261C474.143 640.465 490.261 624.348 490.261 604.466V39.5952C490.261 19.713 474.143 3.59522 454.261 3.59522H39.5293ZM38.0001 24.5744C30.8204 24.5744 25.0001 30.3947 25.0001 37.5744V606.735C25.0001 613.915 30.8204 619.735 38.0001 619.735H456.051C463.231 619.735 469.051 613.915 469.051 606.735V37.5744C469.051 30.3947 463.231 24.5744 456.051 24.5744H38.0001Z" fill="url(#paint4_linear)"/>
<path fill-rule="evenodd" clip-rule="evenodd" d="M39.5293 3.59522C19.647 3.59522 3.5293 19.7129 3.5293 39.5952V604.465C3.5293 624.348 19.6471 640.465 39.5293 640.465H454.261C474.143 640.465 490.261 624.348 490.261 604.466V39.5952C490.261 19.713 474.143 3.59522 454.261 3.59522H39.5293ZM38.0001 24.5744C30.8204 24.5744 25.0001 30.3947 25.0001 37.5744V606.735C25.0001 613.915 30.8204 619.735 38.0001 619.735H456.051C463.231 619.735 469.051 613.915 469.051 606.735V37.5744C469.051 30.3947 463.231 24.5744 456.051 24.5744H38.0001Z" fill="url(#paint5_linear)"/>
<rect x="418.558" y="0.5" width="25.6421" height="1.05442" stroke="#191919"/>
<rect x="418.573" y="0.515198" width="25.6174" height="1.54082" fill="#343434"/>
<rect x="418.574" y="0.515198" width="0.514954" height="0.5152" fill="#2D2D2D"/>
<rect x="419.083" y="0.513603" width="0.515076" height="0.5152" fill="#3F3F3F"/>
<rect opacity="0.9" x="419.083" y="1.02721" width="0.515076" height="0.5152" fill="#4E4E4E"/>
<rect opacity="0.9" x="418.571" y="1.02721" width="0.515045" height="0.5152" fill="#505050"/>
<rect x="419.083" y="1.54082" width="0.515076" height="0.5152" fill="#282828"/>
<rect x="418.571" y="1.54082" width="0.515045" height="0.5152" fill="#1D1D1D"/>
<rect x="443.163" y="0.513603" width="0.515045" height="0.5152" fill="#222222"/>
<rect x="443.678" y="0.513603" width="0.514923" height="0.5152" fill="#2D2D2D"/>
<rect opacity="0.9" x="443.678" y="1.0288" width="0.514923" height="0.5152" fill="#4C4C4C"/>
<rect opacity="0.9" x="443.163" y="1.0288" width="0.515045" height="0.5152" fill="#505050"/>
<rect x="443.676" y="1.54082" width="0.514923" height="0.5152" fill="#4C4C4C"/>
<rect x="443.163" y="1.54082" width="0.515045" height="0.5152" fill="#505050"/>
<rect opacity="0.7" x="423.693" y="1.02721" width="19.4693" height="1.02721" fill="url(#paint6_linear)"/>
<ellipse opacity="0.7" cx="215.898" cy="13.0969" rx="3.33026" ry="3.33843" fill="#262626"/>
<ellipse opacity="0.7" cx="246.126" cy="13.0969" rx="3.33029" ry="3.33843" fill="#262626"/>
<ellipse opacity="0.7" cx="277.38" cy="13.0969" rx="3.84261" ry="3.85204" fill="#262626"/>
<ellipse opacity="0.7" cx="231.268" cy="13.0969" rx="4.355" ry="4.36564" fill="#262626"/>
<ellipse opacity="0.7" cx="262.265" cy="12.8401" rx="1.02469" ry="1.02721" fill="#262626"/>
<path d="M247.419 13.0969C247.419 13.8148 246.839 14.3946 246.126 14.3946C245.413 14.3946 244.833 13.8148 244.833 13.0969C244.833 12.3791 245.413 11.7993 246.126 11.7993C246.839 11.7993 247.419 12.3791 247.419 13.0969Z" fill="url(#paint7_linear)" stroke="#081A34"/>
<defs>
<linearGradient id="paint0_linear" x1="494.811" y1="85.7705" x2="514.623" y2="85.7704" gradientUnits="userSpaceOnUse">
<stop stop-color="#D7D7D7"/>
<stop offset="1" stop-color="#606060" stop-opacity="0"/>
</linearGradient>
<linearGradient id="paint1_linear" x1="494.811" y1="53.9269" x2="514.623" y2="53.9269" gradientUnits="userSpaceOnUse">
<stop stop-color="#D7D7D7"/>
<stop offset="1" stop-color="#606060" stop-opacity="0"/>
</linearGradient>
<radialGradient id="paint2_radial" cx="0" cy="0" r="1" gradientUnits="userSpaceOnUse" gradientTransform="translate(246.895 322.03) rotate(90) scale(345.747 264.628)">
<stop stop-color="#494949"/>
<stop offset="0.861878" stop-color="#191919"/>
</radialGradient>
<linearGradient id="paint3_linear" x1="283.353" y1="641.339" x2="283.353" y2="22.8149" gradientUnits="userSpaceOnUse">
<stop stop-color="#FAFAFA"/>
<stop offset="1" stop-color="#F7F7F7"/>
</linearGradient>
<linearGradient id="paint4_linear" x1="283.353" y1="641.339" x2="283.353" y2="22.8149" gradientUnits="userSpaceOnUse">
<stop stop-color="white"/>
<stop offset="1" stop-color="#FEFEFE"/>
</linearGradient>
<linearGradient id="paint5_linear" x1="283.353" y1="641.339" x2="283.353" y2="22.8149" gradientUnits="userSpaceOnUse">
<stop stop-color="#2B2B2B"/>
<stop offset="1" stop-color="#343434"/>
</linearGradient>
<linearGradient id="paint6_linear" x1="425.168" y1="2.05442" x2="444.933" y2="2.05442" gradientUnits="userSpaceOnUse">
<stop stop-color="#040404"/>
<stop offset="1" stop-color="#606060" stop-opacity="0.59"/>
</linearGradient>
<linearGradient id="paint7_linear" x1="246.126" y1="11.2993" x2="246.126" y2="14.8946" gradientUnits="userSpaceOnUse">
<stop stop-color="#589AEB"/>
<stop offset="0.514921" stop-color="#122954"/>
<stop offset="1" stop-color="#589AEB"/>
</linearGradient>
</defs>
</svg>
