<svg width="770" height="435" viewBox="0 0 770 435" fill="none" xmlns="http://www.w3.org/2000/svg">
  <path fill-rule="evenodd" clip-rule="evenodd" d="M74.3509 15.2044C71.3175 21.161 71.3175 28.9588 71.3175 44.5542V386.368C71.3175 399.364 71.3175 405.863 73.8454 410.826C76.0689 415.193 79.617 418.743 83.981 420.967C88.9422 423.497 95.4368 423.497 108.426 423.497H660.414C673.403 423.497 679.898 423.497 684.859 420.967C689.223 418.743 692.771 415.193 694.994 410.826C697.522 405.863 697.522 399.364 697.522 386.368V44.5542C697.522 28.9588 697.522 21.161 694.489 15.2044C691.821 9.96475 687.563 5.7048 682.326 3.03507C676.373 0 668.579 0 652.992 0H115.848C100.261 0 92.4671 0 86.5137 3.03507C81.2769 5.7048 77.0192 9.96475 74.3509 15.2044ZM678.968 32.4874H89.8717V400.291H678.968V32.4874Z" fill="url(#paint0_linear)"/>
  <path fill-rule="evenodd" clip-rule="evenodd" d="M74.3509 15.2044C71.3175 21.161 71.3175 28.9588 71.3175 44.5542V386.368C71.3175 399.364 71.3175 405.863 73.8454 410.826C76.0689 415.193 79.617 418.743 83.981 420.967C88.9422 423.497 95.4368 423.497 108.426 423.497H660.414C673.403 423.497 679.898 423.497 684.859 420.967C689.223 418.743 692.771 415.193 694.994 410.826C697.522 405.863 697.522 399.364 697.522 386.368V44.5542C697.522 28.9588 697.522 21.161 694.489 15.2044C691.821 9.96475 687.563 5.7048 682.326 3.03507C676.373 0 668.579 0 652.992 0H115.848C100.261 0 92.4671 0 86.5137 3.03507C81.2769 5.7048 77.0192 9.96475 74.3509 15.2044ZM678.968 32.4874H89.8717V400.291H678.968V32.4874Z" fill="url(#paint1_linear)" fill-opacity="0.06"/>
  <path d="M71.8175 44.5542C71.8175 36.7482 71.8179 30.9238 72.195 26.3054C72.5717 21.6929 73.3216 18.3274 74.7965 15.4313C77.4169 10.2857 81.5981 6.10228 86.7408 3.48053C89.6352 2.00492 92.9988 1.25458 97.6088 0.877722C102.225 0.500389 108.046 0.5 115.848 0.5H652.992C660.794 0.5 666.615 0.500389 671.231 0.877722C675.841 1.25458 679.205 2.00492 682.099 3.48053C687.242 6.10228 691.423 10.2857 694.043 15.4313C695.518 18.3274 696.268 21.6929 696.645 26.3054C697.022 30.9238 697.022 36.7482 697.022 44.5542V386.368C697.022 392.875 697.022 397.724 696.708 401.569C696.395 405.407 695.771 408.2 694.549 410.599C692.373 414.872 688.902 418.345 684.632 420.522C682.233 421.745 679.443 422.369 675.606 422.682C671.764 422.996 666.917 422.997 660.414 422.997H108.426C101.923 422.997 97.076 422.996 93.2337 422.682C89.3972 422.369 86.6064 421.745 84.2081 420.522C79.9382 418.345 76.4666 414.872 74.2909 410.599C73.0689 408.2 72.4453 405.407 72.1318 401.569C71.8179 397.724 71.8175 392.875 71.8175 386.368V44.5542Z" stroke="white"/>
  <path fill-rule="evenodd" clip-rule="evenodd" d="M654.384 2.90106H114.456C107.302 2.90106 101.972 2.90151 97.747 3.2469C93.5287 3.59174 90.4631 4.27752 87.8298 5.61998C83.1385 8.0116 79.3244 11.8278 76.934 16.5216C75.5923 19.1564 74.9069 22.2236 74.5623 26.4442C74.217 30.6716 74.2166 36.0048 74.2166 43.1623V380.335C74.2166 387.493 74.217 392.826 74.5623 397.053C74.9069 401.274 75.5923 404.341 76.934 406.976C79.3244 411.67 83.1385 415.486 87.8298 417.877C90.4631 419.22 93.5287 419.906 97.747 420.251C101.972 420.596 107.302 420.596 114.456 420.596H654.384C661.537 420.596 666.868 420.596 671.093 420.251C675.311 419.906 678.377 419.22 681.01 417.877C685.701 415.486 689.515 411.67 691.906 406.976C693.247 404.341 693.933 401.274 694.277 397.053C694.623 392.826 694.623 387.493 694.623 380.335V43.1623C694.623 36.0048 694.623 30.6716 694.277 26.4442C693.933 22.2236 693.247 19.1564 691.906 16.5216C689.515 11.8278 685.701 8.0116 681.01 5.61998C678.377 4.27752 675.311 3.59174 671.093 3.2469C666.868 2.90151 661.537 2.90106 654.384 2.90106ZM76.4174 16.2583C73.6368 21.7185 73.6368 28.8664 73.6368 43.1623V380.335C73.6368 394.631 73.6368 401.779 76.4174 407.239C78.8634 412.042 82.7662 415.947 87.5666 418.394C93.0239 421.177 100.168 421.177 114.456 421.177H654.384C668.672 421.177 675.816 421.177 681.273 418.394C686.074 415.947 689.976 412.042 692.422 407.239C695.203 401.779 695.203 394.631 695.203 380.335V43.1623C695.203 28.8664 695.203 21.7185 692.422 16.2583C689.976 11.4553 686.074 7.55032 681.273 5.10308C675.816 2.32093 668.672 2.32093 654.384 2.32093H114.456C100.168 2.32093 93.0239 2.32093 87.5666 5.10308C82.7662 7.55032 78.8634 11.4553 76.4174 16.2583Z" fill="#F4F4F4"/>
  <path fill-rule="evenodd" clip-rule="evenodd" d="M655.079 4.06152H113.76C106.931 4.06152 101.845 4.06197 97.8128 4.39155C93.7879 4.72058 90.8655 5.37475 88.3563 6.65398C83.8832 8.93437 80.2464 12.5731 77.9673 17.0486C76.6887 19.5592 76.0349 22.4831 75.7061 26.5103C75.3767 30.5442 75.3762 35.6337 75.3762 42.4663V381.032C75.3762 387.864 75.3767 392.954 75.7061 396.988C76.0349 401.015 76.6887 403.939 77.9673 406.449C80.2464 410.925 83.8832 414.563 88.3563 416.844C90.8655 418.123 93.7879 418.777 97.8128 419.106C101.845 419.436 106.931 419.436 113.76 419.436H655.079C661.908 419.436 666.995 419.436 671.027 419.106C675.052 418.777 677.974 418.123 680.484 416.844C684.957 414.563 688.593 410.925 690.872 406.449C692.151 403.939 692.805 401.015 693.134 396.988C693.463 392.954 693.464 387.864 693.464 381.032V42.4663C693.464 35.6337 693.463 30.5442 693.134 26.5103C692.805 22.4831 692.151 19.5592 690.872 17.0486C688.593 12.5731 684.957 8.93437 680.484 6.65398C677.974 5.37475 675.052 4.72058 671.027 4.39155C666.995 4.06197 661.908 4.06152 655.079 4.06152ZM77.4506 16.7852C74.7964 21.9973 74.7964 28.8203 74.7964 42.4663V381.032C74.7964 394.678 74.7964 401.501 77.4506 406.713C79.7854 411.297 83.5108 415.025 88.093 417.361C93.3023 420.016 100.122 420.016 113.76 420.016H655.079C668.718 420.016 675.537 420.016 680.747 417.361C685.329 415.025 689.054 411.297 691.389 406.713C694.043 401.501 694.043 394.678 694.043 381.032V42.4663C694.043 28.8203 694.043 21.9973 691.389 16.7852C689.054 12.2005 685.329 8.47308 680.747 6.13708C675.537 3.48139 668.718 3.48139 655.079 3.48139H113.76C100.122 3.48139 93.3023 3.48139 88.093 6.13708C83.5108 8.47308 79.7854 12.2005 77.4506 16.7852Z" fill="#F4F4F4"/>
  <g filter="url(#filter0_i)">
    <ellipse cx="384.42" cy="17.9847" rx="2.89909" ry="2.90119" fill="#E7E7E7"/>
  </g>
  <rect y="413.054" width="770" height="13.9232" rx="2" fill="#FBFBFB"/>
  <rect y="413.054" width="770" height="13.9232" rx="2" fill="url(#paint2_linear)"/>
  <path d="M66.4644 434.515C22.5804 434.515 5.02944 429.49 1.15961 426.977H769.13C763.326 432.775 721.53 434.611 700.924 434.515H66.4644Z" fill="#E0E0E0"/>
  <path d="M66.4644 434.515C22.5804 434.515 5.02944 429.49 1.15961 426.977H769.13C763.326 432.775 721.53 434.611 700.924 434.515H66.4644Z" fill="url(#paint3_linear)" fill-opacity="0.8"/>
  <g filter="url(#filter1_i)">
    <path d="M321.22 413.054H448.78V413.054C448.78 418.821 444.105 423.496 438.338 423.496H331.662C325.895 423.496 321.22 418.821 321.22 413.054V413.054Z" fill="#FBFBFB"/>
  </g>
  <g filter="url(#filter2_i)">
    <rect x="89.2925" y="31.3276" width="589.096" height="368.384" fill="white" fill-opacity="0.01"/>
  </g>
  <rect x="88.2925" y="30.3276" width="591.096" height="370.384" stroke="white" stroke-width="2"/>
  <defs>
    <filter id="filter0_i" x="381.521" y="15.0835" width="5.79819" height="7.80237" filterUnits="userSpaceOnUse" color-interpolation-filters="sRGB">
      <feFlood flood-opacity="0" result="BackgroundImageFix"/>
      <feBlend mode="normal" in="SourceGraphic" in2="BackgroundImageFix" result="shape"/>
      <feColorMatrix in="SourceAlpha" type="matrix" values="0 0 0 0 0 0 0 0 0 0 0 0 0 0 0 0 0 0 127 0" result="hardAlpha"/>
      <feOffset dy="2"/>
      <feGaussianBlur stdDeviation="1.5"/>
      <feComposite in2="hardAlpha" operator="arithmetic" k2="-1" k3="1"/>
      <feColorMatrix type="matrix" values="0 0 0 0 0 0 0 0 0 0 0 0 0 0 0 0 0 0 0.08 0"/>
      <feBlend mode="normal" in2="shape" result="effect1_innerShadow"/>
    </filter>
    <filter id="filter1_i" x="321.22" y="409.054" width="127.56" height="14.4424" filterUnits="userSpaceOnUse" color-interpolation-filters="sRGB">
      <feFlood flood-opacity="0" result="BackgroundImageFix"/>
      <feBlend mode="normal" in="SourceGraphic" in2="BackgroundImageFix" result="shape"/>
      <feColorMatrix in="SourceAlpha" type="matrix" values="0 0 0 0 0 0 0 0 0 0 0 0 0 0 0 0 0 0 127 0" result="hardAlpha"/>
      <feOffset dy="-4"/>
      <feGaussianBlur stdDeviation="6"/>
      <feComposite in2="hardAlpha" operator="arithmetic" k2="-1" k3="1"/>
      <feColorMatrix type="matrix" values="0 0 0 0 0 0 0 0 0 0 0 0 0 0 0 0 0 0 0.13 0"/>
      <feBlend mode="normal" in2="shape" result="effect1_innerShadow"/>
    </filter>
    <filter id="filter2_i" x="87.2925" y="29.3276" width="593.096" height="382.384" filterUnits="userSpaceOnUse" color-interpolation-filters="sRGB">
      <feFlood flood-opacity="0" result="BackgroundImageFix"/>
      <feBlend mode="normal" in="SourceGraphic" in2="BackgroundImageFix" result="shape"/>
      <feColorMatrix in="SourceAlpha" type="matrix" values="0 0 0 0 0 0 0 0 0 0 0 0 0 0 0 0 0 0 127 0" result="hardAlpha"/>
      <feOffset dy="10"/>
      <feGaussianBlur stdDeviation="10"/>
      <feComposite in2="hardAlpha" operator="arithmetic" k2="-1" k3="1"/>
      <feColorMatrix type="matrix" values="0 0 0 0 0 0 0 0 0 0 0 0 0 0 0 0 0 0 0.05 0"/>
      <feBlend mode="normal" in2="shape" result="effect1_innerShadow"/>
    </filter>
    <linearGradient id="paint0_linear" x1="384.42" y1="0" x2="384.42" y2="423.497" gradientUnits="userSpaceOnUse">
      <stop stop-color="#FAFAFA"/>
      <stop offset="1" stop-color="#F7F7F7"/>
    </linearGradient>
    <linearGradient id="paint1_linear" x1="223.81" y1="413.634" x2="223.81" y2="408.993" gradientUnits="userSpaceOnUse">
      <stop/>
      <stop offset="1" stop-color="white" stop-opacity="0"/>
    </linearGradient>
    <linearGradient id="paint2_linear" x1="385" y1="413.054" x2="385" y2="419.436" gradientUnits="userSpaceOnUse">
      <stop stop-color="white"/>
      <stop offset="1" stop-color="white" stop-opacity="0"/>
    </linearGradient>
    <linearGradient id="paint3_linear" x1="385.145" y1="443.502" x2="385.145" y2="426.977" gradientUnits="userSpaceOnUse">
      <stop/>
      <stop offset="1" stop-color="white" stop-opacity="0"/>
    </linearGradient>
  </defs>
</svg>
