<svg width="220" height="420" viewBox="0 0 220 420" fill="none" xmlns="http://www.w3.org/2000/svg">
  <path d="M2.12976 174.98H4.02287V139.846H2.12976C0.946558 139.846 0 140.767 0 141.919V172.907C0 174.059 0.946558 174.98 2.12976 174.98Z" fill="url(#paint0_linear)"/>
  <path d="M2.12976 126.714H4.02287V91.5801H2.12976C0.946558 91.5801 0 92.5016 0 93.6536V124.641C0 125.793 0.946558 126.714 2.12976 126.714Z" fill="url(#paint1_linear)"/>
  <path d="M217.31 126.714H215.417V91.5801H217.31C218.493 91.5801 219.44 92.5016 219.44 93.6536V124.641C219.44 125.793 218.493 126.714 217.31 126.714Z" fill="url(#paint2_linear)"/>
  <path d="M0.591599 66.3525H3.31295C3.66791 66.3525 3.90455 66.1221 3.90455 65.7765V63.9334C3.90455 63.5878 3.66791 63.3574 3.31295 63.3574H0.591599C0.236639 63.3574 0 63.5878 0 63.9334V65.7765C0 66.1221 0.236639 66.3525 0.591599 66.3525Z" fill="url(#paint3_linear)"/>
  <path d="M0.591599 52.6435H3.31295C3.66791 52.6435 3.90455 52.4131 3.90455 52.0675V50.2244C3.90455 49.8788 3.66791 49.6484 3.31295 49.6484H0.591599C0.236639 49.6484 0 49.8788 0 50.2244V52.0675C0 52.4131 0.236639 52.6435 0.591599 52.6435Z" fill="url(#paint4_linear)"/>
  <path fill-rule="evenodd" clip-rule="evenodd" d="M2.40332 32.2545C2.40332 14.5315 17.329 0 35.5328 0H183.314C201.636 0 216.444 14.4163 216.444 32.2545V387.63C216.444 405.469 201.636 419.885 183.314 419.885H35.5328C17.2107 419.885 2.40332 405.469 2.40332 387.63V32.2545ZM35.5328 10.3675C23.2102 10.3675 13.0521 20.2573 13.0521 32.2545V387.63C13.0521 399.743 23.0919 409.517 35.5328 409.517H183.314C195.755 409.517 205.795 399.743 205.795 387.63V32.2545C205.795 20.1421 195.755 10.3675 183.314 10.3675H35.5328Z" fill="url(#paint5_linear)"/>
  <path opacity="0.5" d="M4.08691 32.2549C4.08691 14.8437 18.7517 1.65234 36.7164 1.65234H182.131C200.215 1.65234 214.761 14.7286 214.761 32.2549V386.479C214.761 404.028 200.19 418.233 182.131 418.233H36.7164C18.6577 418.233 4.08691 404.028 4.08691 386.479V32.2549Z" stroke="#F5F5F5" stroke-miterlimit="10"/>
  <path opacity="0.2" fill-rule="evenodd" clip-rule="evenodd" d="M34.8408 9.21484C22.5182 9.21484 11.8694 20.1583 11.8694 31.1018V388.781C11.8694 399.725 22.5182 410.668 34.3501 410.668H184.007C196.448 410.668 206.979 400.301 206.979 388.781V31.1018C207.08 20.1583 197.04 9.21484 184.498 9.21484H34.8408Z" stroke="white" stroke-miterlimit="10"/>
  <g filter="url(#filter0_i)">
    <path fill-rule="evenodd" clip-rule="evenodd" d="M36.0239 10.3672C23.7013 10.3672 13.0525 21.3107 13.0525 32.2542V387.63C13.0525 398.573 23.7013 409.517 35.5332 409.517H182.824C195.265 409.517 205.795 399.149 205.795 387.63V32.2542C205.896 21.3107 195.856 10.3672 183.315 10.3672H36.0239Z" fill="white" fill-opacity="0.01"/>
  </g>
  <defs>
    <filter id="filter0_i" x="13.0525" y="10.3672" width="192.744" height="409.15" filterUnits="userSpaceOnUse" color-interpolation-filters="sRGB">
      <feFlood flood-opacity="0" result="BackgroundImageFix"/>
      <feBlend mode="normal" in="SourceGraphic" in2="BackgroundImageFix" result="shape"/>
      <feColorMatrix in="SourceAlpha" type="matrix" values="0 0 0 0 0 0 0 0 0 0 0 0 0 0 0 0 0 0 127 0" result="hardAlpha"/>
      <feOffset dy="10"/>
      <feGaussianBlur stdDeviation="10"/>
      <feComposite in2="hardAlpha" operator="arithmetic" k2="-1" k3="1"/>
      <feColorMatrix type="matrix" values="0 0 0 0 0 0 0 0 0 0 0 0 0 0 0 0 0 0 0.05 0"/>
      <feBlend mode="normal" in2="shape" result="effect1_innerShadow"/>
    </filter>
    <linearGradient id="paint0_linear" x1="0" y1="157.388" x2="4.0237" y2="157.388" gradientUnits="userSpaceOnUse">
      <stop stop-color="#F7F7F7"/>
      <stop offset="0.203125" stop-color="#E1E1E1"/>
      <stop offset="0.5625" stop-color="#F1F1F1"/>
      <stop offset="0.744792" stop-color="#FBFBFB"/>
      <stop offset="0.911458" stop-color="white"/>
      <stop offset="0.9375" stop-color="#E1E1E1"/>
    </linearGradient>
    <linearGradient id="paint1_linear" x1="0" y1="109.122" x2="4.0237" y2="109.122" gradientUnits="userSpaceOnUse">
      <stop stop-color="#F7F7F7"/>
      <stop offset="0.203125" stop-color="#E1E1E1"/>
      <stop offset="0.5625" stop-color="#F1F1F1"/>
      <stop offset="0.744792" stop-color="#FBFBFB"/>
      <stop offset="0.911458" stop-color="white"/>
      <stop offset="0.9375" stop-color="#E1E1E1"/>
    </linearGradient>
    <linearGradient id="paint2_linear" x1="219.44" y1="109.122" x2="215.416" y2="109.122" gradientUnits="userSpaceOnUse">
      <stop stop-color="#E1E1E1"/>
      <stop offset="0.177083" stop-color="white"/>
      <stop offset="0.270833" stop-color="#FBFBFB"/>
      <stop offset="0.494792" stop-color="#F1F1F1"/>
      <stop offset="0.713542" stop-color="#E1E1E1"/>
      <stop offset="1" stop-color="#F7F7F7"/>
    </linearGradient>
    <linearGradient id="paint3_linear" x1="0" y1="64.8528" x2="3.90536" y2="64.8528" gradientUnits="userSpaceOnUse">
      <stop stop-color="#F7F7F7"/>
      <stop offset="0.203125" stop-color="#E1E1E1"/>
      <stop offset="0.5625" stop-color="#F1F1F1"/>
      <stop offset="0.744792" stop-color="#FBFBFB"/>
      <stop offset="0.911458" stop-color="white"/>
      <stop offset="0.9375" stop-color="#E1E1E1"/>
    </linearGradient>
    <linearGradient id="paint4_linear" x1="0" y1="51.1438" x2="3.90536" y2="51.1438" gradientUnits="userSpaceOnUse">
      <stop stop-color="#F7F7F7"/>
      <stop offset="0.203125" stop-color="#E1E1E1"/>
      <stop offset="0.5625" stop-color="#F1F1F1"/>
      <stop offset="0.744792" stop-color="#FBFBFB"/>
      <stop offset="0.911458" stop-color="white"/>
      <stop offset="0.9375" stop-color="#E1E1E1"/>
    </linearGradient>
    <linearGradient id="paint5_linear" x1="125.456" y1="420.461" x2="125.456" y2="12.6714" gradientUnits="userSpaceOnUse">
      <stop stop-color="#FAFAFA"/>
      <stop offset="1" stop-color="#F7F7F7"/>
    </linearGradient>
  </defs>
</svg>
